<?xml version="1.0" encoding="UTF-8"?>
<svg width="24px" height="24px" viewBox="0 0 24 24" version="1.1" xmlns="http://www.w3.org/2000/svg" xmlns:xlink="http://www.w3.org/1999/xlink">
    <!-- Generator: Sketch 61.2 (89653) - https://sketch.com -->
    <title>Group 32</title>
    <desc>Created with Sketch.</desc>
    <g id="Components" stroke="none" stroke-width="1" fill="none" fill-rule="evenodd">
        <g id="dropzone" transform="translate(-529.000000, -3333.000000)">
            <g id="Group-34" transform="translate(529.000000, 3333.000000)">
                <g id="Group-32">
                    <g id="Group-26" fill="#FFFFFF">
                        <rect id="Rectangle" x="0" y="0" width="24" height="24" rx="3"></rect>
                    </g>
                    <g id="noun_Crop_218415" transform="translate(6.000000, 6.000000)" fill="#5C6BDD" fill-rule="nonzero" stroke="#5C6BDD" stroke-width="0.2">
                        <path d="M11.7233468,9.32936947 L9.88263356,9.32936947 L9.88263356,2.50843473 L11.9190056,0.472206858 C12.0269981,0.364214602 12.0269981,0.189159292 11.9190056,0.0811670354 C11.811013,-0.0268252212 11.6359572,-0.0268252212 11.5279646,0.0811670354 L9.49117778,2.11780973 L2.67049995,2.11780973 L2.67049995,0.276548673 C2.67049995,0.123893805 2.54660579,0 2.39395048,0 C2.24129517,0 2.11740101,0.123893805 2.11740101,0.276548673 L2.11740101,2.11767146 L0.276549469,2.11767146 C0.123894162,2.11767146 0,2.24156527 0,2.39422013 C0,2.546875 0.123894162,2.67076881 0.276549469,2.67076881 L2.11740101,2.67076881 L2.11740101,9.60577987 C2.11740101,9.62389381 2.11933686,9.64200774 2.12279373,9.65998341 C2.12445302,9.66827987 2.12749507,9.67588496 2.12984574,9.68390487 C2.13261123,9.69316925 2.13468535,9.7025719 2.13841877,9.71155973 C2.14229046,9.72110066 2.14768318,9.72967367 2.15266107,9.7386615 C2.15639449,9.74543695 2.15943653,9.75262721 2.16386132,9.75912611 C2.18418771,9.78954646 2.21018336,9.81554204 2.2406038,9.83586836 C2.24724099,9.84029314 2.254293,9.8431969 2.26106846,9.84706858 C2.27005632,9.85204646 2.27862935,9.85743916 2.28817031,9.86131084 C2.29715817,9.86504425 2.30656085,9.86711836 2.31582526,9.86988385 C2.32384519,9.87223451 2.3314503,9.87527655 2.33974678,9.87693584 C2.35758423,9.88053097 2.37569822,9.88232854 2.39395048,9.88232854 L9.32953462,9.88232854 L9.32953462,11.7234513 C9.32953462,11.8761062 9.45342878,12 9.60608409,12 C9.7587394,12 9.88263356,11.8761062 9.88263356,11.7234513 L9.88263356,9.88246681 L11.7233468,9.88246681 C11.8760021,9.88246681 12,9.75857301 12,9.60591814 C12,9.45326327 11.8761404,9.32936947 11.7233468,9.32936947 Z M8.93807885,2.67090708 L2.67049995,8.93832965 L2.67049995,2.67090708 L8.93807885,2.67090708 Z M3.0615409,9.32936947 L9.32953462,3.06153208 L9.32953462,9.32936947 L3.0615409,9.32936947 Z" id="Shape"></path>
                    </g>
                </g>
            </g>
        </g>
    </g>
</svg>