<?xml version="1.0" encoding="UTF-8"?>
<svg width="25px" height="24px" viewBox="0 0 25 24" version="1.1" xmlns="http://www.w3.org/2000/svg" xmlns:xlink="http://www.w3.org/1999/xlink">
    <!-- Generator: sketchtool 58 (101010) - https://sketch.com -->
    <title>FE8AD24E-3A81-4101-9E49-532E7DDFC56D</title>
    <desc>Created with sketchtool.</desc>
    <g id="Components" stroke="none" stroke-width="1" fill="none" fill-rule="evenodd">
        <g id="FIle-upload-" transform="translate(-192.000000, -328.000000)" fill="#41434C" fill-rule="nonzero">
            <g id="Group-3" transform="translate(117.000000, 243.000000)">
                <g id="Group-6" transform="translate(42.000000, 51.000000)">
                    <path d="M58.001731,46.2051311 C58.001731,47.7872309 57.4089971,49.311449 56.3332831,50.4969168 C55.2496618,51.6909245 53.794712,52.4089106 52.2360179,52.5189807 C52.2214684,52.5199296 52.2069189,52.5205622 52.1923694,52.5205622 L48.3519345,52.5205622 C48.0100213,52.5205622 47.7329483,52.2434891 47.7329483,51.9015759 C47.7329483,51.5596627 48.0100213,51.2825897 48.3519345,51.2825897 L52.1695963,51.2825897 C54.7050045,51.0918647 56.7637585,48.8189801 56.7637585,46.2051311 C56.7637585,43.7415215 54.9978922,41.5815537 52.6563719,41.1811262 C52.3808803,41.1339985 52.1711778,40.9081649 52.1446091,40.6298267 C51.8514051,37.5557708 49.2957541,35.2376562 46.2001903,35.2376562 C43.8972578,35.2376562 41.7758777,36.5822196 40.7966332,38.6627978 C40.6596781,38.9537878 40.3225093,39.0913754 40.021398,38.9794076 C39.7345198,38.873133 39.4283478,38.8190468 39.1111055,38.8190468 C37.6371781,38.8190468 36.4384259,40.0181152 36.4384259,41.4917263 C36.4384259,41.8127642 36.4925121,42.1211503 36.5987867,42.4077121 C36.7031636,42.6895296 36.5899305,43.005823 36.3302536,43.1576439 C35.0397764,43.9104222 34.2382888,45.3043274 34.2382888,46.7959673 C34.2382888,49.1017464 36.0572924,51.1519605 38.213781,51.2822734 L42.6466335,51.2822734 C42.9885467,51.2822734 43.2656198,51.5593464 43.2656198,51.9012596 C43.2656198,52.2431728 42.9885467,52.5202459 42.6466335,52.5202459 L38.195436,52.5202459 C38.1840494,52.5202459 38.1723466,52.5199296 38.16096,52.519297 C36.7746459,52.4421214 35.4702517,51.7861288 34.4878443,50.6727759 C33.52821,49.5853591 33,48.2085337 33,46.7962836 C33,45.0304173 33.8682255,43.3701931 35.2943926,42.3545748 C35.2317665,42.0752877 35.2001371,41.7868281 35.2001371,41.4920426 C35.2001371,39.3358703 36.9543005,37.5813906 39.1104729,37.5813906 C39.3856482,37.5813906 39.6563954,37.6095407 39.9195515,37.6652083 C41.1872556,35.4223716 43.5974116,34 46.199874,34 C48.0052769,34 49.7325554,34.6702258 51.0638344,35.8866903 C52.2720754,36.9908707 53.0621764,38.458156 53.3183741,40.0573356 C56.0182548,40.7440086 58.001731,43.3063018 58.001731,46.2051311 Z M48.76533,47.4000877 C48.8861541,47.5209118 49.0446171,47.5813239 49.2030802,47.5813239 C49.3615432,47.5813239 49.5200062,47.5209118 49.640514,47.4000877 C49.8821622,47.1584395 49.8821622,46.766552 49.640514,46.5249038 L45.9386156,42.8226891 C45.6969674,42.5810409 45.3050798,42.5810409 45.0634317,42.8226891 L41.361217,46.5245875 C41.1195688,46.7662357 41.1195688,47.1581232 41.361217,47.3997714 C41.4820411,47.5205955 41.6405041,47.5810076 41.7989671,47.5810076 C41.9574301,47.5810076 42.1158931,47.5205955 42.2364009,47.3997714 L44.8821955,44.7539768 L44.8821955,56.4824537 C44.8821955,56.8243669 45.1592686,57.10144 45.5011818,57.10144 C45.843095,57.10144 46.120168,56.8243669 46.120168,56.4824537 L46.120168,44.7542931 L48.76533,47.4000877 Z" id="Shape"></path>
                </g>
            </g>
        </g>
    </g>
</svg>