<?xml version="1.0" encoding="UTF-8"?>
<svg width="19px" height="18px" viewBox="0 0 19 18" version="1.1" xmlns="http://www.w3.org/2000/svg" xmlns:xlink="http://www.w3.org/1999/xlink">
    <!-- Generator: Sketch 63.1 (92452) - https://sketch.com -->
    <title>Shape</title>
    <desc>Created with Sketch.</desc>
    <g id="Components" stroke="none" stroke-width="1" fill="none" fill-rule="evenodd">
        <g id="dropzone" transform="translate(-1221.000000, -821.000000)" fill="#5C6BDD" fill-rule="nonzero">
            <g id="Group-29-Copy-4" transform="translate(770.000000, 782.000000)">
                <g id="Group-38" transform="translate(445.000000, 32.000000)">
                    <g id="noun_edit_2017574" transform="translate(6.000000, 7.000000)">
                        <g id="Group">
                            <path d="M0.62295082,18.0003 L0.772459016,18.0003 L5.75606557,16.8003 C5.85044262,16.773 5.93609836,16.7238 6.0052459,16.6566 L18.4642623,4.6575 C18.6019344,4.5534 18.6854098,4.3965 18.6925738,4.2279 C18.6997377,4.0593 18.6299672,3.8961 18.5016393,3.7815 L14.7639344,0.1818 C14.6508689,0.0657 14.4929508,0 14.3278689,0 C14.1627869,0 14.0048689,0.0657 13.8918033,0.1818 L1.43278689,12.1809 C1.35990164,12.2502 1.30819672,12.3372 1.28327869,12.4329 L0.0373770492,17.2326 C-0.0252295082,17.4348 0.0376885246,17.6538 0.199344262,17.7963 C0.304622951,17.9187 0.458180328,17.9928 0.62295082,18.0003 Z M14.3278689,1.4538 L17.1809836,4.2015 L15.5737705,5.7495 L12.7206557,3.0018 L14.3278689,1.4538 Z M11.8360656,3.8535 L14.6891803,6.6012 L5.60655738,15.3486 L2.75344262,12.6006 L11.8360656,3.8535 Z M2.2052459,13.7766 L4.38557377,15.8766 L1.48262295,16.5723 L2.2052459,13.7766 Z" id="Shape"></path>
                        </g>
                    </g>
                </g>
            </g>
        </g>
    </g>
</svg>