<?xml version="1.0" encoding="UTF-8"?>
<svg width="14px" height="14px" viewBox="0 0 14 14" version="1.1" xmlns="http://www.w3.org/2000/svg" xmlns:xlink="http://www.w3.org/1999/xlink">
    <!-- Generator: Sketch 63.1 (92452) - https://sketch.com -->
    <title>Shape</title>
    <desc>Created with Sketch.</desc>
    <g id="Components" stroke="none" stroke-width="1" fill="none" fill-rule="evenodd">
        <g id="dropzone" transform="translate(-680.000000, -581.000000)" fill="#5C6BDD" fill-rule="nonzero">
            <path d="M680.470279,595 L680.582333,595 L684.31746,594.066682 C684.388194,594.045449 684.452391,594.007183 684.504216,593.954917 L693.842033,584.62244 C693.945216,584.541474 694.007779,584.419443 694.013149,584.288312 C694.018518,584.157181 693.966226,584.030249 693.870046,583.941118 L691.068701,581.141398 C690.983961,581.051099 690.865604,581 690.741878,581 C690.618152,581 690.499795,581.051099 690.415054,581.141398 L681.077237,590.473875 C681.022611,590.527775 680.983859,590.59544 680.965183,590.669872 L680.031402,594.40291 C679.984479,594.560174 680.031635,594.730504 680.152793,594.841336 C680.231698,594.936534 680.346786,594.994167 680.470279,595 Z M690.741878,582.130714 L692.880238,584.267779 L691.675659,585.471759 L689.537299,583.334694 L690.741878,582.130714 Z M688.874314,583.997117 L691.012674,586.134181 L684.205406,592.937601 L682.067046,590.800303 L688.874314,583.997117 Z M681.656182,591.714955 L683.2903,593.348261 L681.114588,593.889352 L681.656182,591.714955 Z" id="Shape"></path>
        </g>
    </g>
</svg>