<?xml version="1.0" encoding="UTF-8"?>
<svg width="38px" height="32px" viewBox="0 0 38 32" version="1.1" xmlns="http://www.w3.org/2000/svg" xmlns:xlink="http://www.w3.org/1999/xlink">
    <!-- Generator: Sketch 60 (88103) - https://sketch.com -->
    <title>Group 23</title>
    <desc>Created with Sketch.</desc>
    <g id="Components" stroke="none" stroke-width="1" fill="none" fill-rule="evenodd">
        <g id="dropzone" transform="translate(-188.000000, -326.000000)">
            <g id="Group-9" transform="translate(159.000000, 243.000000)">
                <g id="Group-23" transform="translate(24.000000, 75.000000)">
                    <rect id="Rectangle" x="0" y="0" width="48" height="48" rx="3"></rect>
                    <g id="cloud-computing" transform="translate(5.000000, 8.000000)" fill="#D5DAFF" fill-rule="nonzero">
                        <path d="M32.2841667,10.04028 C31.9504,4.46028 27.2517,0 21.5865333,0 C18.1475333,0 14.8174667,1.65106 12.7540667,4.34496 C12.7072,4.32078 12.6571667,4.30466 12.6096667,4.28172 C12.4842667,4.2222 12.3569667,4.16516 12.2265,4.11494 C12.1536667,4.08704 12.0808333,4.06162 12.0073667,4.0362 C11.8794333,3.99218 11.7502333,3.95374 11.6178667,3.9184 C11.5444,3.89918 11.4715667,3.87934 11.3968333,3.8626 C11.2549667,3.83098 11.1105667,3.8068 10.9642667,3.78572 C10.8996667,3.77642 10.8363333,3.76402 10.7711,3.75658 C10.5621,3.73426 10.3493,3.72 10.1333333,3.72 C6.99073333,3.72 4.43333333,6.22294 4.43333333,9.3 C4.43333333,9.37998 4.43776667,9.4581 4.44346667,9.53622 C1.80943333,10.94176 0,13.88738 0,16.83548 C0,21.22694 3.64926667,24.8 8.13516667,24.8 L11.4,24.8 C11.7496,24.8 12.0333333,24.52286 12.0333333,24.18 C12.0333333,23.83714 11.7496,23.56 11.4,23.56 L8.13516667,23.56 C4.34783333,23.56 1.26666667,20.5437 1.26666667,16.83548 C1.26666667,14.26 2.97983333,11.58656 5.34026667,10.47862 L5.7,10.3106 L5.7,9.92 C5.7,9.84374 5.70506667,9.76562 5.7095,9.6875 L5.7152,9.579 L5.7076,9.46244 C5.70443333,9.4085 5.7,9.35456 5.7,9.3 C5.7,6.90742 7.68866667,4.96 10.1333333,4.96 C10.3290333,4.96 10.5222,4.97674 10.7141,5.00154 C10.7635,5.00774 10.8122667,5.0158 10.8610333,5.02386 C11.0307667,5.05114 11.1979667,5.0871 11.3626333,5.1336 C11.3841667,5.1398 11.4063333,5.14352 11.4272333,5.14972 C11.6083667,5.20366 11.7850667,5.27248 11.9579667,5.34936 C12.0016667,5.36858 12.0447333,5.38966 12.0878,5.41074 C12.2410667,5.48452 12.3911667,5.56636 12.5355667,5.65812 C13.756,6.4325 14.5666667,7.77418 14.5666667,9.3 C14.5666667,9.64286 14.8504,9.92 15.2,9.92 C15.5496,9.92 15.8333333,9.64286 15.8333333,9.3 C15.8333333,7.59252 15.0442,6.06422 13.8066667,5.03998 C15.6218,2.71498 18.6124,1.24 21.5865333,1.24 C26.4910667,1.24 30.5659333,5.0437 30.9902667,9.84994 C30.343,9.8053 29.3733667,9.78236 28.4043667,9.92744 C28.0585667,9.9789 27.8210667,10.2951 27.8736333,10.63362 C27.9211333,10.94052 28.1909333,11.16062 28.4987333,11.16062 C28.5304,11.16062 28.5627,11.15814 28.595,11.15318 C30.0035333,10.94486 31.4722333,11.14016 31.5615333,11.15194 C34.5103333,11.70064 36.7333333,14.35982 36.7333333,17.34264 C36.7333333,20.77062 33.8839667,23.56 30.3822667,23.56 L27.8666667,23.56 C27.5170667,23.56 27.2333333,23.83714 27.2333333,24.18 C27.2333333,24.52286 27.5170667,24.8 27.8666667,24.8 L30.3822667,24.8 C34.5825333,24.8 38,21.45448 38,17.34264 C38,13.93946 35.5762333,10.8872 32.2841667,10.04028 Z" id="Path"></path>
                        <path d="M19.8494628,16.9780009 C19.791611,16.9214541 19.7218115,16.8770679 19.6444661,16.8460583 C19.4910331,16.7846472 19.3174776,16.7846472 19.1640445,16.8460583 C19.0866991,16.8770679 19.0175285,16.9214541 18.9590478,16.9780009 L13.9290835,21.8416361 C13.6832133,22.079376 13.6832133,22.4636512 13.9290835,22.7013911 C14.0517042,22.819957 14.2126832,22.879544 14.3736622,22.879544 C14.5346412,22.879544 14.6956202,22.819957 14.8182409,22.7013911 L18.7754312,18.8750558 L18.7754312,31.3919696 C18.7754312,31.7282104 19.0571444,32 19.4042553,32 C19.7513662,32 20.0330795,31.7282104 20.0330795,31.3919696 L20.0330795,18.8750558 L23.9902698,22.7013911 C24.1128905,22.819957 24.2738695,22.879544 24.4348484,22.879544 C24.5958274,22.879544 24.7568064,22.819957 24.8794271,22.7013911 C25.1252973,22.4636512 25.1252973,22.079376 24.8794271,21.8416361 L19.8494628,16.9780009 Z" id="Path"></path>
                    </g>
                </g>
            </g>
        </g>
    </g>
</svg>