<?xml version="1.0" encoding="UTF-8"?>
<svg width="28px" height="34px" viewBox="0 0 28 34" version="1.1" xmlns="http://www.w3.org/2000/svg" xmlns:xlink="http://www.w3.org/1999/xlink">
    <!-- Generator: Sketch 61.2 (89653) - https://sketch.com -->
    <title>Group 12</title>
    <desc>Created with Sketch.</desc>
    <g id="Components" stroke="none" stroke-width="1" fill="none" fill-rule="evenodd">
        <g id="dropzone" transform="translate(-807.000000, -814.000000)">
            <g id="Group-29-Copy-4" transform="translate(770.000000, 782.000000)">
                <g id="Group-12" transform="translate(27.000000, 25.000000)">
                    <g id="Group-10-Copy">
                        <g id="Group-6">
                            <rect id="Rectangle" x="0" y="0" width="48" height="48" rx="3"></rect>
                        </g>
                    </g>
                    <g id="noun_attach-file_1669430" transform="translate(10.000000, 7.000000)" fill="#A4A4A4" fill-rule="nonzero">
                        <path d="M26.7594956,7.794374 L20.0850868,1.21891093 C19.2929503,0.435296722 18.2155565,-0.00359369472 17.0929982,2.21664453e-05 L5.86045652,2.21664453e-05 C2.62381576,2.21664453e-05 0,2.58496323 0,5.77362194 L0,28.2264227 C0,29.7576706 0.617439182,31.2262026 1.71648797,32.3089584 C2.81553677,33.3917141 4.30616681,34 5.86045652,34 L22.1395024,34 C23.6937921,34 25.1844222,33.3917141 26.283471,32.3089584 C27.3825198,31.2262026 27.9999796,29.7576706 27.9999796,28.2264227 L27.9999796,10.7453135 C28.0034797,9.63785766 27.556746,8.57512236 26.7594956,7.794374 Z M26.2499698,28.3936326 C26.2499698,30.5510669 24.4712105,32.300013 22.2769997,32.300013 L5.7229577,32.300013 C3.52874691,32.300013 1.74998762,30.5510669 1.74998762,28.3936326 L1.74998762,5.60641338 C1.74998762,3.44897904 3.52874691,1.70003295 5.7229577,1.70003295 L17.1452467,1.70003295 C17.7595245,1.7019385 18.3483131,1.94169329 18.7840968,2.36737294 L25.571254,9.04077285 C26.0058718,9.46814971 26.2499698,10.0477835 26.2499698,10.6521548 L26.2499698,28.3936326 Z M20.0094743,11.9850262 C20.9845082,12.9316608 21.5323234,14.2158977 21.5323234,15.5550239 C21.5323234,16.8941501 20.9845082,18.178387 20.0094743,19.1250216 L13.4224791,25.5187174 C12.8565763,26.0727187 12.0856458,26.3831802 11.2822307,26.3806326 L11.2822307,26.3806326 C10.0582999,26.3806326 8.95498678,25.6641007 8.48685676,24.5655439 C8.01872675,23.466987 8.27799057,22.2026591 9.14373223,21.3622201 L15.4122277,15.2711241 C15.6769039,15.0101068 16.0653569,14.9070407 16.4298721,15.0011182 C16.7943872,15.0951957 17.0789582,15.3719621 17.175373,15.7261731 C17.2717878,16.0803842 17.1652326,16.4576169 16.8962266,16.7144232 L10.6277312,22.8038192 C10.453738,22.9735793 10.3561848,23.2034633 10.3564813,23.4430188 C10.3593497,23.9385294 10.7721463,24.3395317 11.2822307,24.3423182 L11.2822307,24.3423182 C11.5283017,24.3425287 11.7643734,24.2477403 11.9384802,24.0788184 L18.5237254,17.6800225 C19.7316222,16.5063276 19.7316222,14.6037202 18.5237254,13.4300253 C17.2985486,12.2971243 15.3739054,12.2971243 14.1487286,13.4300253 L8.32648283,19.0791216 C8.06472421,19.3520098 7.67050555,19.4643403 7.29847911,19.3720458 C6.92645266,19.2797513 6.6359534,18.997552 6.54094437,18.6361548 C6.44593534,18.2747577 6.56156967,17.8918024 6.84248391,17.6375226 L12.6594797,11.9850262 C14.7160516,10.077566 17.9529024,10.077566 20.0094743,11.9850262 L20.0094743,11.9850262 Z" id="Shape"></path>
                    </g>
                </g>
            </g>
        </g>
    </g>
</svg>