<?xml version="1.0" encoding="UTF-8"?>
<svg width="36px" height="36px" viewBox="0 0 36 36" version="1.1" xmlns="http://www.w3.org/2000/svg" xmlns:xlink="http://www.w3.org/1999/xlink">
    <!-- Generator: Sketch 61.2 (89653) - https://sketch.com -->
    <title>noun_PDF_2201522</title>
    <desc>Created with Sketch.</desc>
    <g id="Components" stroke="none" stroke-width="1" fill="none" fill-rule="evenodd">
        <g id="dropzone" transform="translate(-192.000000, -813.000000)" fill="#A4A4A4" fill-rule="nonzero">
            <g id="Group-12" transform="translate(159.000000, 542.000000)">
                <g id="Group-29-Copy-3" transform="translate(0.000000, 240.000000)">
                    <g id="noun_PDF_2201522" transform="translate(33.000000, 31.000000)">
                        <g id="Group">
                            <g transform="translate(7.200000, 19.200000)">
                                <path d="M6.12,3.6 C6.12,4.44 5.88,5.16 5.28,5.64 C4.68,6.12 3.96,6.36 3,6.36 L1.92,6.36 L1.92,9.12 L0.24,9.12 L0.24,0.72 L3,0.72 C3.96,0.72 4.8,0.96 5.28,1.44 C5.76,1.92 6.12,2.64 6.12,3.6 Z M4.44,3.6 C4.44,3.24 4.32,2.88 4.08,2.64 C3.84,2.4 3.48,2.28 3,2.28 L1.92,2.28 L1.92,5.04 L3,5.04 C3.48,5.04 3.84,4.92 4.08,4.68 C4.32,4.32 4.44,3.96 4.44,3.6 Z" id="Shape"></path>
                                <path d="M14.64,4.92 C14.64,6.36 14.28,7.32 13.56,8.04 C12.84,8.76 11.76,9.12 10.32,9.12 L7.44,9.12 L7.44,0.72 L10.32,0.72 C11.64,0.72 12.6,1.08 13.44,1.8 C14.28,2.64 14.64,3.6 14.64,4.92 Z M12.96,4.92 C12.96,4.08 12.72,3.48 12.24,3 C11.76,2.52 11.16,2.28 10.32,2.28 L8.88,2.28 L8.88,7.8 L10.08,7.8 C12.12,7.68 12.96,6.84 12.96,4.92 Z" id="Shape"></path>
                                <polygon id="Path" points="21.36 0.72 21.36 2.16 17.76 2.16 17.76 4.08 21.24 4.08 21.24 5.52 17.76 5.52 17.76 9.12 16.2 9.12 16.2 0.72"></polygon>
                            </g>
                            <path d="M30,18.96 L6,18.96 C5.64,18.96 5.4,18.72 5.4,18.36 L5.4,1.2 C5.4,0.84 5.64,0.6 6,0.6 L20.4,0.6 C20.52,0.6 20.76,0.72 20.88,0.72 L30.48,10.44 C30.6,10.56 30.6,10.68 30.6,10.92 L30.6,18.36 C30.6,18.6 30.36,18.96 30,18.96 Z M6.6,17.76 L29.4,17.76 L29.4,11.16 L20.16,1.8 L6.6,1.8 L6.6,17.76 Z" id="Shape"></path>
                            <path d="M30,35.4 L6,35.4 C5.64,35.4 5.4,35.16 5.4,34.8 L5.4,30 C5.4,29.64 5.64,29.4 6,29.4 L30,29.4 C30.36,29.4 30.6,29.64 30.6,30 L30.6,34.8 C30.6,35.16 30.36,35.4 30,35.4 Z M6.6,34.2 L29.4,34.2 L29.4,30.6 L6.6,30.6 L6.6,34.2 Z" id="Shape"></path>
                            <path d="M30,11.52 C30,11.52 30,11.52 30,11.52 L20.4,11.52 C20.04,11.52 19.8,11.28 19.8,10.92 L19.8,1.2 C19.8,0.96 19.92,0.72 20.16,0.6 C20.4,0.48 20.64,0.6 20.76,0.72 L30.24,10.32 C30.36,10.44 30.48,10.56 30.48,10.8 C30.6,11.28 30.36,11.52 30,11.52 Z M21,10.32 L28.56,10.32 L21,2.64 L21,10.32 Z" id="Shape"></path>
                            <path d="M34.8,30.6 L1.2,30.6 C0.84,30.6 0.6,30.36 0.6,30 L0.6,18.24 C0.6,17.88 0.84,17.64 1.2,17.64 L34.8,17.64 C35.16,17.64 35.4,17.88 35.4,18.24 L35.4,30 C35.4,30.36 35.16,30.6 34.8,30.6 Z M1.8,29.4 L34.2,29.4 L34.2,18.84 L1.8,18.84 L1.8,29.4 Z" id="Shape"></path>
                        </g>
                    </g>
                </g>
            </g>
        </g>
    </g>
</svg>