<?xml version="1.0" encoding="UTF-8"?>
<svg width="47px" height="40px" viewBox="0 0 47 40" version="1.1" xmlns="http://www.w3.org/2000/svg" xmlns:xlink="http://www.w3.org/1999/xlink">
    <!-- Generator: Sketch 60 (88103) - https://sketch.com -->
    <title>Group 23</title>
    <desc>Created with Sketch.</desc>
    <g id="Components" stroke="none" stroke-width="1" fill="none" fill-rule="evenodd">
        <g id="dropzone" transform="translate(-376.000000, -1500.000000)">
            <g id="Group-14" transform="translate(157.000000, 1396.000000)">
                <g id="Group-22" transform="translate(0.000000, 4.000000)">
                    <g id="Group-5">
                        <g id="Group-18" transform="translate(14.000000, 10.000000)">
                            <g id="Group-7" transform="translate(113.000000, 80.000000)">
                                <g id="Group-23" transform="translate(85.000000, 0.000000)">
                                    <rect id="Rectangle" x="0" y="0" width="60" height="60" rx="3"></rect>
                                    <g id="cloud-computing" transform="translate(7.000000, 10.000000)" fill="#D5DAFF" fill-rule="nonzero">
                                        <path d="M39.9304167,12.55035 C39.5176,5.57535 33.70605,0 26.6991333,0 C22.4456333,0 18.3268667,2.063825 15.7747667,5.4312 C15.7168,5.400975 15.6549167,5.380825 15.5961667,5.35215 C15.4410667,5.27775 15.2836167,5.20645 15.12225,5.143675 C15.0321667,5.1088 14.9420833,5.077025 14.8512167,5.04525 C14.6929833,4.990225 14.5331833,4.942175 14.3694667,4.898 C14.2786,4.873975 14.1885167,4.849175 14.0960833,4.82825 C13.9206167,4.788725 13.7420167,4.7585 13.5610667,4.73215 C13.4811667,4.720525 13.4028333,4.705025 13.32215,4.695725 C13.06365,4.667825 12.80045,4.65 12.5333333,4.65 C8.64643333,4.65 5.48333333,7.778675 5.48333333,11.625 C5.48333333,11.724975 5.48881667,11.822625 5.49586667,11.920275 C2.23798333,13.6772 0,17.359225 0,21.04435 C0,26.533675 4.51356667,31 10.0619167,31 L14.1,31 C14.5324,31 14.8833333,30.653575 14.8833333,30.225 C14.8833333,29.796425 14.5324,29.45 14.1,29.45 L10.0619167,29.45 C5.37758333,29.45 1.56666667,25.679625 1.56666667,21.04435 C1.56666667,17.825 3.68558333,14.4832 6.60506667,13.098275 L7.05,12.88825 L7.05,12.4 C7.05,12.304675 7.05626667,12.207025 7.06175,12.109375 L7.0688,11.97375 L7.0594,11.82805 C7.05548333,11.760625 7.05,11.6932 7.05,11.625 C7.05,8.634275 9.50966667,6.2 12.5333333,6.2 C12.7753833,6.2 13.0143,6.220925 13.25165,6.251925 C13.31275,6.259675 13.3730667,6.26975 13.4333833,6.279825 C13.6433167,6.313925 13.8501167,6.358875 14.0537833,6.417 C14.0804167,6.42475 14.1078333,6.4294 14.1336833,6.43715 C14.3577167,6.504575 14.5762667,6.5906 14.7901167,6.6867 C14.8441667,6.710725 14.8974333,6.737075 14.9507,6.763425 C15.1402667,6.85565 15.3259167,6.95795 15.5045167,7.07265 C17.014,8.040625 18.0166667,9.717725 18.0166667,11.625 C18.0166667,12.053575 18.3676,12.4 18.8,12.4 C19.2324,12.4 19.5833333,12.053575 19.5833333,11.625 C19.5833333,9.49065 18.6073,7.580275 17.0766667,6.299975 C19.3217,3.393725 23.0206,1.55 26.6991333,1.55 C32.7652667,1.55 37.8052333,6.304625 38.3300667,12.312425 C37.5295,12.256625 36.3302167,12.22795 35.1317167,12.4093 C34.7040167,12.473625 34.4102667,12.868875 34.4752833,13.292025 C34.5340333,13.67565 34.8677333,13.950775 35.2484333,13.950775 C35.2876,13.950775 35.32755,13.947675 35.3675,13.941475 C37.1096333,13.681075 38.9261833,13.9252 39.0366333,13.939925 C42.6838333,14.6258 45.4333333,17.949775 45.4333333,21.6783 C45.4333333,25.963275 41.9091167,29.45 37.5780667,29.45 L34.4666667,29.45 C34.0342667,29.45 33.6833333,29.796425 33.6833333,30.225 C33.6833333,30.653575 34.0342667,31 34.4666667,31 L37.5780667,31 C42.7731333,31 47,26.8181 47,21.6783 C47,17.424325 44.0021833,13.609 39.9304167,12.55035 Z" id="Path"></path>
                                        <path d="M24.5506514,21.2225011 C24.4790978,21.1518176 24.3927669,21.0963348 24.2971029,21.0575729 C24.1073304,20.980809 23.8926696,20.980809 23.7028971,21.0575729 C23.6072331,21.0963348 23.52168,21.1518176 23.4493486,21.2225011 L17.228077,27.3020451 C16.9239743,27.59922 16.9239743,28.079564 17.228077,28.3767388 C17.3797395,28.5249462 17.578845,28.59943 17.7779506,28.59943 C17.9770562,28.59943 18.1761618,28.5249462 18.3278242,28.3767388 L23.2222438,23.5938197 L23.2222438,39.239962 C23.2222438,39.660263 23.5706786,40 24,40 C24.4293214,40 24.7777562,39.660263 24.7777562,39.239962 L24.7777562,23.5938197 L29.6721758,28.3767388 C29.8238382,28.5249462 30.0229438,28.59943 30.2220494,28.59943 C30.421155,28.59943 30.6202605,28.5249462 30.771923,28.3767388 C31.0760257,28.079564 31.0760257,27.59922 30.771923,27.3020451 L24.5506514,21.2225011 Z" id="Path"></path>
                                    </g>
                                </g>
                            </g>
                        </g>
                    </g>
                </g>
            </g>
        </g>
    </g>
</svg>