<?xml version="1.0" encoding="UTF-8"?>
<svg width="36px" height="36px" viewBox="0 0 36 36" version="1.1" xmlns="http://www.w3.org/2000/svg" xmlns:xlink="http://www.w3.org/1999/xlink">
    <!-- Generator: Sketch 61 (89581) - https://sketch.com -->
    <title>Group 26</title>
    <desc>Created with Sketch.</desc>
    <g id="Components" stroke="none" stroke-width="1" fill="none" fill-rule="evenodd">
        <g id="dropzone" transform="translate(-382.000000, -3185.000000)">
            <g id="Group-15-Copy" transform="translate(158.000000, 3022.000000)">
                <g id="Group-26" transform="translate(224.000000, 163.000000)">
                    <rect id="Rectangle" fill="#FFFFFF" x="0" y="0" width="36" height="36" rx="3"></rect>
                    <g id="noun_Download_2861424" transform="translate(6.000000, 6.000000)">
                        <g id="Group">
                            <rect id="Rectangle" x="0" y="0.187476" width="23.8125024" height="23.8125247"></rect>
                            <path d="M11.8969499,5.065332 C11.8826665,5.06532614 11.8683901,5.06596278 11.8541639,5.06724 C11.6124525,5.09577015 11.4311362,5.30194441 11.4337249,5.54532 L11.4337249,14.757792 L7.487919,10.811976 C7.38705929,10.7085828 7.24473041,10.6565437 7.10096616,10.670496 L7.10096616,10.672404 C6.91755618,10.6922785 6.76211789,10.8162802 6.70198915,10.99069 C6.64186041,11.1650997 6.68785636,11.358547 6.82005096,11.487228 L11.5658082,16.233 C11.6552003,16.3228506 11.7767176,16.3733668 11.9034617,16.3733668 C12.0302059,16.3733668 12.1517231,16.3228506 12.2411153,16.233 L16.9943144,11.487228 C17.1151554,11.3666341 17.1624282,11.1907046 17.1183057,11.0257845 C17.0741833,10.8608645 16.9453778,10.7320426 16.7804633,10.6878993 C16.6155489,10.6437559 16.4396133,10.6910064 16.3190041,10.811832 L12.3825006,14.750196 L12.3825006,5.545176 C12.3835115,5.41660155 12.3324964,5.29308016 12.2410519,5.20269035 C12.1496074,5.11230054 12.0255025,5.06272172 11.8969484,5.06513368 L11.8969499,5.065332 Z M16.7171213,18.284964 C16.6991165,18.2845796 16.6811043,18.2852166 16.6631717,18.286872 L7.151193,18.286872 C7.13446225,18.2859886 7.11769655,18.2859886 7.1009658,18.286872 C6.85321177,18.3180441 6.67159196,18.535265 6.68479266,18.7846232 C6.69799336,19.0339813 6.90153255,19.2308123 7.151193,19.235652 L16.6631717,19.235652 C16.8359117,19.2503442 17.0029928,19.1700185 17.0993986,19.0259321 C17.1958043,18.8818457 17.2063078,18.6967565 17.1268217,18.5426885 C17.0473356,18.3886206 16.8904144,18.2899084 16.7171213,18.284964 L16.7171213,18.284964 Z" id="Shape" fill="#5C6BDD" fill-rule="nonzero"></path>
                        </g>
                    </g>
                </g>
            </g>
        </g>
    </g>
</svg>